<svg aria-roledescription="flowchart-v2" role="graphics-document document" viewBox="-8 -8 809.6376953125 1538.0625" style="max-width: 809.638px; background-color: white;" xmlns:xlink="http://www.w3.org/1999/xlink" xmlns="http://www.w3.org/2000/svg" width="100%" id="my-svg"><style>#my-svg{font-family:Arial,Helvetica,sans-serif;font-size:18px;fill:#000000;}#my-svg .error-icon{fill:#552222;}#my-svg .error-text{fill:#552222;stroke:#552222;}#my-svg .edge-thickness-normal{stroke-width:2px;}#my-svg .edge-thickness-thick{stroke-width:3.5px;}#my-svg .edge-pattern-solid{stroke-dasharray:0;}#my-svg .edge-pattern-dashed{stroke-dasharray:3;}#my-svg .edge-pattern-dotted{stroke-dasharray:2;}#my-svg .marker{fill:#334155;stroke:#334155;}#my-svg .marker.cross{stroke:#334155;}#my-svg svg{font-family:Arial,Helvetica,sans-serif;font-size:18px;}#my-svg .label{font-family:Arial,Helvetica,sans-serif;color:#000000;}#my-svg .cluster-label text{fill:#0f172a;}#my-svg .cluster-label span,#my-svg p{color:#0f172a;}#my-svg .label text,#my-svg span,#my-svg p{fill:#000000;color:#000000;}#my-svg .node rect,#my-svg .node circle,#my-svg .node ellipse,#my-svg .node polygon,#my-svg .node path{fill:#ffffff;stroke:#475569;stroke-width:1px;}#my-svg .flowchart-label text{text-anchor:middle;}#my-svg .node .katex path{fill:#000;stroke:#000;stroke-width:1px;}#my-svg .node .label{text-align:center;}#my-svg .node.clickable{cursor:pointer;}#my-svg .arrowheadPath{fill:#333333;}#my-svg .edgePath .path{stroke:#334155;stroke-width:2.0px;}#my-svg .flowchart-link{stroke:#334155;fill:none;}#my-svg .edgeLabel{background-color:#ffffff;text-align:center;}#my-svg .edgeLabel rect{opacity:0.5;background-color:#ffffff;fill:#ffffff;}#my-svg .labelBkg{background-color:rgba(255, 255, 255, 0.5);}#my-svg .cluster rect{fill:#f8fafc;stroke:#64748b;stroke-width:1px;}#my-svg .cluster text{fill:#0f172a;}#my-svg .cluster span,#my-svg p{color:#0f172a;}#my-svg div.mermaidTooltip{position:absolute;text-align:center;max-width:200px;padding:2px;font-family:Arial,Helvetica,sans-serif;font-size:12px;background:#ffffff;border:1px solid #707070;border-radius:2px;pointer-events:none;z-index:100;}#my-svg .flowchartTitleText{text-anchor:middle;font-size:18px;fill:#000000;}#my-svg :root{--mermaid-font-family:"trebuchet ms",verdana,arial,sans-serif;}</style><g><marker orient="auto" markerHeight="12" markerWidth="12" markerUnits="userSpaceOnUse" refY="5" refX="6" viewBox="0 0 10 10" class="marker flowchart" id="my-svg_flowchart-pointEnd"><path style="stroke-width: 1; stroke-dasharray: 1, 0;" class="arrowMarkerPath" d="M 0 0 L 10 5 L 0 10 z"/></marker><marker orient="auto" markerHeight="12" markerWidth="12" markerUnits="userSpaceOnUse" refY="5" refX="4.5" viewBox="0 0 10 10" class="marker flowchart" id="my-svg_flowchart-pointStart"><path style="stroke-width: 1; stroke-dasharray: 1, 0;" class="arrowMarkerPath" d="M 0 5 L 10 10 L 10 0 z"/></marker><marker orient="auto" markerHeight="11" markerWidth="11" markerUnits="userSpaceOnUse" refY="5" refX="11" viewBox="0 0 10 10" class="marker flowchart" id="my-svg_flowchart-circleEnd"><circle style="stroke-width: 1; stroke-dasharray: 1, 0;" class="arrowMarkerPath" r="5" cy="5" cx="5"/></marker><marker orient="auto" markerHeight="11" markerWidth="11" markerUnits="userSpaceOnUse" refY="5" refX="-1" viewBox="0 0 10 10" class="marker flowchart" id="my-svg_flowchart-circleStart"><circle style="stroke-width: 1; stroke-dasharray: 1, 0;" class="arrowMarkerPath" r="5" cy="5" cx="5"/></marker><marker orient="auto" markerHeight="11" markerWidth="11" markerUnits="userSpaceOnUse" refY="5.2" refX="12" viewBox="0 0 11 11" class="marker cross flowchart" id="my-svg_flowchart-crossEnd"><path style="stroke-width: 2; stroke-dasharray: 1, 0;" class="arrowMarkerPath" d="M 1,1 l 9,9 M 10,1 l -9,9"/></marker><marker orient="auto" markerHeight="11" markerWidth="11" markerUnits="userSpaceOnUse" refY="5.2" refX="-1" viewBox="0 0 11 11" class="marker cross flowchart" id="my-svg_flowchart-crossStart"><path style="stroke-width: 2; stroke-dasharray: 1, 0;" class="arrowMarkerPath" d="M 1,1 l 9,9 M 10,1 l -9,9"/></marker><g class="root"><g class="clusters"/><g class="edgePaths"><path marker-end="url(#my-svg_flowchart-pointEnd)" style="fill:none;" class="edge-thickness-normal edge-pattern-solid flowchart-link LS-A LE-B" id="L-A-B-0" d="M574.588,50L574.588,56.667C574.588,63.333,574.588,76.667,574.588,89.117C574.588,101.567,574.588,113.133,574.588,118.917L574.588,124.7"/><path marker-end="url(#my-svg_flowchart-pointEnd)" style="fill:none;" class="edge-thickness-normal edge-pattern-solid flowchart-link LS-B LE-C" id="L-B-C-0" d="M574.588,180L574.588,186.667C574.588,193.333,574.588,206.667,574.588,219.117C574.588,231.567,574.588,243.133,574.588,248.917L574.588,254.7"/><path marker-end="url(#my-svg_flowchart-pointEnd)" style="fill:none;" class="edge-thickness-normal edge-pattern-solid flowchart-link LS-C LE-D" id="L-C-D-0" d="M495.794,310L474.783,316.667C453.771,323.333,411.748,336.667,390.737,349.117C369.725,361.567,369.725,373.133,369.725,378.917L369.725,384.7"/><path marker-end="url(#my-svg_flowchart-pointEnd)" style="fill:none;" class="edge-thickness-normal edge-pattern-solid flowchart-link LS-D LE-E" id="L-D-E-0" d="M369.725,440L369.725,448.333C369.725,456.667,369.725,473.333,369.725,489.117C369.725,504.9,369.725,519.8,369.725,527.25L369.725,534.7"/><path marker-end="url(#my-svg_flowchart-pointEnd)" style="fill:none;" class="edge-thickness-normal edge-pattern-solid flowchart-link LS-E LE-F" id="L-E-F-0" d="M369.725,590L369.725,596.667C369.725,603.333,369.725,616.667,393.955,638.86C418.185,661.054,466.645,692.107,490.875,707.634L515.105,723.161"/><path marker-end="url(#my-svg_flowchart-pointEnd)" style="fill:none;" class="edge-thickness-normal edge-pattern-solid flowchart-link LS-F LE-C" id="L-F-C-0" d="M630.608,726.02L655.415,710.017C680.222,694.013,729.836,662.007,754.643,635.17C779.45,608.333,779.45,586.667,779.45,563.333C779.45,540,779.45,515,779.45,490C779.45,465,779.45,440,779.45,416.667C779.45,393.333,779.45,371.667,759.281,354.434C739.111,337.201,698.772,324.402,678.602,318.002L658.433,311.603"/><path marker-end="url(#my-svg_flowchart-pointEnd)" style="fill:none;" class="edge-thickness-normal edge-pattern-solid flowchart-link LS-F LE-G" id="L-F-G-0" d="M575.088,852.563L575.004,860.813C574.921,869.063,574.754,885.563,574.671,901.262C574.588,916.963,574.588,931.863,574.588,939.313L574.588,946.763"/><path marker-end="url(#my-svg_flowchart-pointEnd)" style="fill:none;" class="edge-thickness-normal edge-pattern-solid flowchart-link LS-G LE-H" id="L-G-H-0" d="M574.588,1002.063L574.588,1008.729C574.588,1015.396,574.588,1028.729,574.588,1041.179C574.588,1053.629,574.588,1065.196,574.588,1070.979L574.588,1076.763"/><path marker-end="url(#my-svg_flowchart-pointEnd)" style="fill:none;" class="edge-thickness-normal edge-pattern-solid flowchart-link LS-H LE-I" id="L-H-I-0" d="M574.588,1132.063L574.588,1138.729C574.588,1145.396,574.588,1158.729,574.588,1171.179C574.588,1183.629,574.588,1195.196,574.588,1200.979L574.588,1206.763"/><path marker-end="url(#my-svg_flowchart-pointEnd)" style="fill:none;" class="edge-thickness-normal edge-pattern-solid flowchart-link LS-I LE-J" id="L-I-J-0" d="M574.588,1262.063L574.588,1268.729C574.588,1275.396,574.588,1288.729,574.588,1301.179C574.588,1313.629,574.588,1325.196,574.588,1330.979L574.588,1336.763"/><path marker-end="url(#my-svg_flowchart-pointEnd)" style="fill:none;" class="edge-thickness-normal edge-pattern-solid flowchart-link LS-J LE-K" id="L-J-K-0" d="M574.588,1392.063L574.588,1398.729C574.588,1405.396,574.588,1418.729,574.588,1431.179C574.588,1443.629,574.588,1455.196,574.588,1460.979L574.588,1466.763"/></g><g class="edgeLabels"><g class="edgeLabel"><g transform="translate(0, 0)" class="label"><rect height="0" width="0" ry="0" rx="0"/><text style=""><tspan class="row" x="0" dy="1em" xml:space="preserve"/></text></g></g><g class="edgeLabel"><g transform="translate(0, 0)" class="label"><rect height="0" width="0" ry="0" rx="0"/><text style=""><tspan class="row" x="0" dy="1em" xml:space="preserve"/></text></g></g><g class="edgeLabel"><g transform="translate(0, 0)" class="label"><rect height="0" width="0" ry="0" rx="0"/><text style=""><tspan class="row" x="0" dy="1em" xml:space="preserve"/></text></g></g><g class="edgeLabel"><g transform="translate(0, 0)" class="label"><rect height="0" width="0" ry="0" rx="0"/><text style=""><tspan class="row" x="0" dy="1em" xml:space="preserve"/></text></g></g><g class="edgeLabel"><g transform="translate(0, 0)" class="label"><rect height="0" width="0" ry="0" rx="0"/><text style=""><tspan class="row" x="0" dy="1em" xml:space="preserve"/></text></g></g><g transform="translate(779.4501953125, 490)" class="edgeLabel"><g transform="translate(-15.1875, -10)" class="label"><rect height="20.000408172607422" width="30.35999298095703" ry="0" rx="0"/><text style=""><tspan class="row" x="0" dy="1em" xml:space="preserve">Yes</tspan></text></g></g><g transform="translate(574.587646484375, 902.0625)" class="edgeLabel"><g transform="translate(-11.5078125, -10)" class="label"><rect height="20.000408172607422" width="23.000469207763672" ry="0" rx="0"/><text style=""><tspan class="row" x="0" dy="1em" xml:space="preserve">No</tspan></text></g></g><g class="edgeLabel"><g transform="translate(0, 0)" class="label"><rect height="0" width="0" ry="0" rx="0"/><text style=""><tspan class="row" x="0" dy="1em" xml:space="preserve"/></text></g></g><g class="edgeLabel"><g transform="translate(0, 0)" class="label"><rect height="0" width="0" ry="0" rx="0"/><text style=""><tspan class="row" x="0" dy="1em" xml:space="preserve"/></text></g></g><g class="edgeLabel"><g transform="translate(0, 0)" class="label"><rect height="0" width="0" ry="0" rx="0"/><text style=""><tspan class="row" x="0" dy="1em" xml:space="preserve"/></text></g></g><g class="edgeLabel"><g transform="translate(0, 0)" class="label"><rect height="0" width="0" ry="0" rx="0"/><text style=""><tspan class="row" x="0" dy="1em" xml:space="preserve"/></text></g></g></g><g class="nodes"><g transform="translate(574.587646484375, 25)" data-id="A" data-node="true" id="flowchart-A-0" class="node default default flowchart-label"><rect height="50" width="176.044921875" y="-25" x="-88.0224609375" ry="0" rx="0" style="fill:#e3f2fd;" class="basic label-container"/><g transform="translate(0, -19)" style="" class="label"><rect/><text style=""><tspan class="row" x="0" dy="1em" xml:space="preserve">POST /invocations</tspan><tspan class="row" x="0" dy="1em" xml:space="preserve">User Prompt or Alert</tspan></text></g></g><g transform="translate(574.587646484375, 155)" data-id="B" data-node="true" id="flowchart-B-1" class="node default default flowchart-label"><rect height="50" width="245.8125" y="-25" x="-122.90625" ry="0" rx="0" style="fill:#f3e5f5;" class="basic label-container"/><g transform="translate(0, -19)" style="" class="label"><rect/><text style=""><tspan class="row" x="0" dy="1em" xml:space="preserve">Initialize Graph State</tspan><tspan class="row" x="0" dy="1em" xml:space="preserve">Incident Context &amp;amp; Tools</tspan></text></g></g><g transform="translate(574.587646484375, 285)" data-id="C" data-node="true" id="flowchart-C-3" class="node default default flowchart-label"><rect height="50" width="181.0810546875" y="-25" x="-90.54052734375" ry="0" rx="0" style="fill:#fff3e0;" class="basic label-container"/><g transform="translate(0, -19)" style="" class="label"><rect/><text style=""><tspan class="row" x="0" dy="1em" xml:space="preserve">Supervisor Node</tspan><tspan class="row" x="0" dy="1em" xml:space="preserve">Select next specialist</tspan></text></g></g><g transform="translate(369.72509765625, 415)" data-id="D" data-node="true" id="flowchart-D-5" class="node default default flowchart-label"><rect height="50" width="739.4501953125" y="-25" x="-369.72509765625" ry="0" rx="0" style="" class="basic label-container"/><g transform="translate(0, -19)" style="" class="label"><rect/><text style=""><tspan class="row" x="0" dy="1em" xml:space="preserve">Specialist Step</tspan><tspan class="row" x="0" dy="1em" xml:space="preserve">kubernetes_agent OR metrics_agent OR logs_agent OR runbooks_agent OR github_agent</tspan></text></g></g><g transform="translate(369.72509765625, 565)" data-id="E" data-node="true" id="flowchart-E-7" class="node default default flowchart-label"><rect height="50" width="229.140625" y="-25" x="-114.5703125" ry="0" rx="0" style="fill:#f3e5f5;" class="basic label-container"/><g transform="translate(0, -19)" style="" class="label"><rect/><text style=""><tspan class="row" x="0" dy="1em" xml:space="preserve">Supervisor Checkpoint</tspan><tspan class="row" x="0" dy="1em" xml:space="preserve">Review evidence and route</tspan></text></g></g><g transform="translate(574.587646484375, 761.03125)" data-id="F" data-node="true" id="flowchart-F-9" class="node default default flowchart-label"><polygon style="" transform="translate(-91.03125,91.03125)" class="label-container" points="91.03125,0 182.0625,-91.03125 91.03125,-182.0625 0,-91.03125"/><g transform="translate(0, -19)" style="" class="label"><rect/><text style=""><tspan class="row" x="0" dy="1em" xml:space="preserve">More Evidence</tspan><tspan class="row" x="0" dy="1em" xml:space="preserve">Needed?</tspan></text></g></g><g transform="translate(574.587646484375, 977.0625)" data-id="G" data-node="true" id="flowchart-G-13" class="node default default flowchart-label"><rect height="50" width="205.076171875" y="-25" x="-102.5380859375" ry="0" rx="0" style="fill:#e8f5e9;" class="basic label-container"/><g transform="translate(0, -19)" style="" class="label"><rect/><text style=""><tspan class="row" x="0" dy="1em" xml:space="preserve">Aggregate Node</tspan><tspan class="row" x="0" dy="1em" xml:space="preserve">Generate final summary</tspan></text></g></g><g transform="translate(574.587646484375, 1107.0625)" data-id="H" data-node="true" id="flowchart-H-15" class="node default default flowchart-label"><rect height="50" width="282.140625" y="-25" x="-141.0703125" ry="0" rx="0" style="fill:#fce4ec;" class="basic label-container"/><g transform="translate(0, -19)" style="" class="label"><rect/><text style=""><tspan class="row" x="0" dy="1em" xml:space="preserve">Persist incident summary</tspan><tspan class="row" x="0" dy="1em" xml:space="preserve">and timeline events (PostgreSQL)</tspan></text></g></g><g transform="translate(574.587646484375, 1237.0625)" data-id="I" data-node="true" id="flowchart-I-17" class="node default default flowchart-label"><rect height="50" width="257.5966796875" y="-25" x="-128.79833984375" ry="0" rx="0" style="fill:#fce4ec;" class="basic label-container"/><g transform="translate(0, -19)" style="" class="label"><rect/><text style=""><tspan class="row" x="0" dy="1em" xml:space="preserve">Store live state/logs</tspan><tspan class="row" x="0" dy="1em" xml:space="preserve">for follow-up (Redis + DB logs)</tspan></text></g></g><g transform="translate(574.587646484375, 1367.0625)" data-id="J" data-node="true" id="flowchart-J-19" class="node default default flowchart-label"><rect height="50" width="152.09375" y="-25" x="-76.046875" ry="0" rx="0" style="fill:#e3f2fd;" class="basic label-container"/><g transform="translate(0, -19)" style="" class="label"><rect/><text style=""><tspan class="row" x="0" dy="1em" xml:space="preserve">Return Response</tspan><tspan class="row" x="0" dy="1em" xml:space="preserve">to Dashboard</tspan></text></g></g><g transform="translate(574.587646484375, 1497.0625)" data-id="K" data-node="true" id="flowchart-K-21" class="node default default flowchart-label"><rect height="50" width="172.109375" y="-25" x="-86.0546875" ry="0" rx="0" style="" class="basic label-container"/><g transform="translate(0, -19)" style="" class="label"><rect/><text style=""><tspan class="row" x="0" dy="1em" xml:space="preserve">Dashboard Updates</tspan><tspan class="row" x="0" dy="1em" xml:space="preserve">Incident Panel</tspan></text></g></g></g></g></g></svg>