<svg aria-roledescription="flowchart-v2" role="graphics-document document" viewBox="-8 -8 3511.9287109375 630" style="max-width: 3511.93px; background-color: white;" xmlns:xlink="http://www.w3.org/1999/xlink" xmlns="http://www.w3.org/2000/svg" width="100%" id="my-svg"><style>#my-svg{font-family:Arial,Helvetica,sans-serif;font-size:18px;fill:#000000;}#my-svg .error-icon{fill:#552222;}#my-svg .error-text{fill:#552222;stroke:#552222;}#my-svg .edge-thickness-normal{stroke-width:2px;}#my-svg .edge-thickness-thick{stroke-width:3.5px;}#my-svg .edge-pattern-solid{stroke-dasharray:0;}#my-svg .edge-pattern-dashed{stroke-dasharray:3;}#my-svg .edge-pattern-dotted{stroke-dasharray:2;}#my-svg .marker{fill:#334155;stroke:#334155;}#my-svg .marker.cross{stroke:#334155;}#my-svg svg{font-family:Arial,Helvetica,sans-serif;font-size:18px;}#my-svg .label{font-family:Arial,Helvetica,sans-serif;color:#000000;}#my-svg .cluster-label text{fill:#0f172a;}#my-svg .cluster-label span,#my-svg p{color:#0f172a;}#my-svg .label text,#my-svg span,#my-svg p{fill:#000000;color:#000000;}#my-svg .node rect,#my-svg .node circle,#my-svg .node ellipse,#my-svg .node polygon,#my-svg .node path{fill:#ffffff;stroke:#475569;stroke-width:1px;}#my-svg .flowchart-label text{text-anchor:middle;}#my-svg .node .katex path{fill:#000;stroke:#000;stroke-width:1px;}#my-svg .node .label{text-align:center;}#my-svg .node.clickable{cursor:pointer;}#my-svg .arrowheadPath{fill:#333333;}#my-svg .edgePath .path{stroke:#334155;stroke-width:2.0px;}#my-svg .flowchart-link{stroke:#334155;fill:none;}#my-svg .edgeLabel{background-color:#ffffff;text-align:center;}#my-svg .edgeLabel rect{opacity:0.5;background-color:#ffffff;fill:#ffffff;}#my-svg .labelBkg{background-color:rgba(255, 255, 255, 0.5);}#my-svg .cluster rect{fill:#f8fafc;stroke:#64748b;stroke-width:1px;}#my-svg .cluster text{fill:#0f172a;}#my-svg .cluster span,#my-svg p{color:#0f172a;}#my-svg div.mermaidTooltip{position:absolute;text-align:center;max-width:200px;padding:2px;font-family:Arial,Helvetica,sans-serif;font-size:12px;background:#ffffff;border:1px solid #707070;border-radius:2px;pointer-events:none;z-index:100;}#my-svg .flowchartTitleText{text-anchor:middle;font-size:18px;fill:#000000;}#my-svg :root{--mermaid-font-family:"trebuchet ms",verdana,arial,sans-serif;}</style><g><marker orient="auto" markerHeight="12" markerWidth="12" markerUnits="userSpaceOnUse" refY="5" refX="6" viewBox="0 0 10 10" class="marker flowchart" id="my-svg_flowchart-pointEnd"><path style="stroke-width: 1; stroke-dasharray: 1, 0;" class="arrowMarkerPath" d="M 0 0 L 10 5 L 0 10 z"/></marker><marker orient="auto" markerHeight="12" markerWidth="12" markerUnits="userSpaceOnUse" refY="5" refX="4.5" viewBox="0 0 10 10" class="marker flowchart" id="my-svg_flowchart-pointStart"><path style="stroke-width: 1; stroke-dasharray: 1, 0;" class="arrowMarkerPath" d="M 0 5 L 10 10 L 10 0 z"/></marker><marker orient="auto" markerHeight="11" markerWidth="11" markerUnits="userSpaceOnUse" refY="5" refX="11" viewBox="0 0 10 10" class="marker flowchart" id="my-svg_flowchart-circleEnd"><circle style="stroke-width: 1; stroke-dasharray: 1, 0;" class="arrowMarkerPath" r="5" cy="5" cx="5"/></marker><marker orient="auto" markerHeight="11" markerWidth="11" markerUnits="userSpaceOnUse" refY="5" refX="-1" viewBox="0 0 10 10" class="marker flowchart" id="my-svg_flowchart-circleStart"><circle style="stroke-width: 1; stroke-dasharray: 1, 0;" class="arrowMarkerPath" r="5" cy="5" cx="5"/></marker><marker orient="auto" markerHeight="11" markerWidth="11" markerUnits="userSpaceOnUse" refY="5.2" refX="12" viewBox="0 0 11 11" class="marker cross flowchart" id="my-svg_flowchart-crossEnd"><path style="stroke-width: 2; stroke-dasharray: 1, 0;" class="arrowMarkerPath" d="M 1,1 l 9,9 M 10,1 l -9,9"/></marker><marker orient="auto" markerHeight="11" markerWidth="11" markerUnits="userSpaceOnUse" refY="5.2" refX="-1" viewBox="0 0 11 11" class="marker cross flowchart" id="my-svg_flowchart-crossStart"><path style="stroke-width: 2; stroke-dasharray: 1, 0;" class="arrowMarkerPath" d="M 1,1 l 9,9 M 10,1 l -9,9"/></marker><g class="root"><g class="clusters"><g id="Models" class="cluster default flowchart-label"><rect height="166" width="1742.52685546875" y="448" x="1669.59716796875" ry="0" rx="0" style="fill:#e3f2fd;"/><g transform="translate(2540.860595703125, 448)" class="cluster-label"><text style=""><tspan class="row" x="0" dy="1em" xml:space="preserve">Backend Models</tspan><tspan class="row" x="0" dy="1em" xml:space="preserve">&amp;amp; Schemas</tspan></text></g></g><g id="Auth" class="cluster default flowchart-label"><rect height="166" width="1649.59716796875" y="448" x="0" ry="0" rx="0" style="fill:#fff3e0;"/><g transform="translate(824.798583984375, 448)" class="cluster-label"><text style=""><tspan class="row" x="0" dy="1em" xml:space="preserve">Auth Dependencies</tspan></text></g></g><g id="Routes" class="cluster default flowchart-label"><rect height="238" width="3475.6396484375" y="130" x="20.2890625" ry="0" rx="0" style="fill:#f3e5f5;"/><g transform="translate(1758.10888671875, 130)" class="cluster-label"><text style=""><tspan class="row" x="0" dy="1em" xml:space="preserve">API v1 Routes</tspan></text></g></g></g><g class="edgePaths"><path marker-end="url(#my-svg_flowchart-pointEnd)" style="fill:none;" class="edge-thickness-normal edge-pattern-solid flowchart-link LS-CL LE-AD" id="L-CL-AD-0" d="M201.617,312.515L186.637,321.762C171.656,331.01,141.695,349.505,126.715,365.419C111.734,381.333,111.734,394.667,111.734,408C111.734,421.333,111.734,434.667,240.852,452.975C369.97,471.283,628.206,494.566,757.324,506.208L886.442,517.849"/><path marker-end="url(#my-svg_flowchart-pointEnd)" style="fill:none;" class="edge-thickness-normal edge-pattern-solid flowchart-link LS-INC LE-AD" id="L-INC-AD-0" d="M582.908,292L566.678,304.667C550.447,317.333,517.985,342.667,501.754,362C485.523,381.333,485.523,394.667,429.699,408C373.875,421.333,262.227,434.667,329.047,452.878C395.867,471.09,641.155,494.18,763.8,505.725L886.444,517.27"/><path marker-end="url(#my-svg_flowchart-pointEnd)" style="fill:none;" class="edge-thickness-normal edge-pattern-solid flowchart-link LS-JOB LE-AD" id="L-JOB-AD-0" d="M969.136,283L947.53,297.167C925.924,311.333,882.712,339.667,861.105,360.5C839.499,381.333,839.499,394.667,749.691,408C659.882,421.333,480.265,434.667,488.091,452.409C495.917,470.152,691.186,492.303,788.82,503.379L886.454,514.455"/><path marker-end="url(#my-svg_flowchart-pointEnd)" style="fill:none;" class="edge-thickness-normal edge-pattern-solid flowchart-link LS-MET LE-AD" id="L-MET-AD-0" d="M1768.621,274L1768.621,289.667C1768.621,305.333,1768.621,336.667,1768.621,359C1768.621,381.333,1768.621,394.667,1619.843,408C1471.066,421.333,1173.51,434.667,1039.336,449.086C905.161,463.505,934.367,479.01,948.97,486.762L963.573,494.515"/><path marker-end="url(#my-svg_flowchart-pointEnd)" style="fill:none;" class="edge-thickness-normal edge-pattern-solid flowchart-link LS-SLO LE-AD" id="L-SLO-AD-0" d="M1342.134,301L1324.055,312.167C1305.976,323.333,1269.817,345.667,1251.737,363.5C1233.658,381.333,1233.658,394.667,1111.738,408C989.819,421.333,745.979,434.667,688.117,451.362C630.255,468.057,758.37,488.115,822.427,498.143L886.484,508.172"/><path marker-end="url(#my-svg_flowchart-pointEnd)" style="fill:none;" class="edge-thickness-normal edge-pattern-solid flowchart-link LS-ALERT LE-AD" id="L-ALERT-AD-0" d="M2022.864,274L2022.864,289.667C2022.864,305.333,2022.864,336.667,2022.864,359C2022.864,381.333,2022.864,394.667,1854.566,408C1686.268,421.333,1349.673,434.667,1183.067,448.639C1016.461,462.612,1019.845,477.224,1021.537,484.531L1023.229,491.837"/><path marker-end="url(#my-svg_flowchart-pointEnd)" style="fill:none;" class="edge-thickness-normal edge-pattern-solid flowchart-link LS-MC LE-AD" id="L-MC-AD-0" d="M2237.552,310L2226.919,319.667C2216.286,329.333,2195.021,348.667,2184.389,365C2173.756,381.333,2173.756,394.667,1983.643,408C1793.529,421.333,1413.303,434.667,1223.122,448.617C1032.94,462.567,1032.804,477.133,1032.735,484.417L1032.667,491.7"/><path marker-end="url(#my-svg_flowchart-pointEnd)" style="fill:none;" class="edge-thickness-normal edge-pattern-solid flowchart-link LS-ANALYTICS LE-AD" id="L-ANALYTICS-AD-0" d="M2610.587,274L2589.555,289.667C2568.524,305.333,2526.46,336.667,2505.429,359C2484.397,381.333,2484.397,394.667,2267.659,408C2050.921,421.333,1617.445,434.667,1386.558,449.076C1155.671,463.485,1127.375,478.97,1113.226,486.713L1099.078,494.456"/><path marker-end="url(#my-svg_flowchart-pointEnd)" style="fill:none;" class="edge-thickness-normal edge-pattern-solid flowchart-link LS-CHAT LE-AD" id="L-CHAT-AD-0" d="M2960.539,274L2938.739,289.667C2916.939,305.333,2873.338,336.667,2851.538,359C2829.737,381.333,2829.737,394.667,2585.401,408C2341.064,421.333,1852.391,434.667,1576.302,449.285C1300.213,463.904,1236.708,479.808,1204.955,487.76L1173.202,495.712"/><path marker-end="url(#my-svg_flowchart-pointEnd)" style="fill:none;" class="edge-thickness-normal edge-pattern-solid flowchart-link LS-RECO LE-AD" id="L-RECO-AD-0" d="M3301.104,274L3278.07,289.667C3255.037,305.333,3208.971,336.667,3185.938,359C3162.905,381.333,3162.905,394.667,2893.972,408C2625.04,421.333,2087.174,434.667,1756.375,451.265C1425.575,467.864,1301.843,487.728,1239.976,497.66L1178.11,507.592"/><path marker-end="url(#my-svg_flowchart-pointEnd)" style="fill:none;" class="edge-thickness-normal edge-pattern-solid flowchart-link LS-CL LE-OM" id="L-CL-OM-0" d="M407.398,325.042L417.086,332.202C426.773,339.361,446.148,353.681,455.836,367.507C465.523,381.333,465.523,394.667,683.208,408C900.892,421.333,1336.26,434.667,1553.944,447.117C1771.628,459.567,1771.628,471.133,1771.628,476.917L1771.628,482.7"/><path marker-end="url(#my-svg_flowchart-pointEnd)" style="fill:none;" class="edge-thickness-normal edge-pattern-solid flowchart-link LS-INC LE-IM" id="L-INC-IM-0" d="M703.589,292L722.907,304.667C742.226,317.333,780.862,342.667,800.181,362C819.499,381.333,819.499,394.667,1011.769,408C1204.039,421.333,1588.58,434.667,1788.853,447.463C1989.126,460.259,2005.133,472.518,2013.136,478.648L2021.139,484.777"/><path marker-end="url(#my-svg_flowchart-pointEnd)" style="fill:none;" class="edge-thickness-normal edge-pattern-solid flowchart-link LS-JOB LE-IM" id="L-JOB-IM-0" d="M1076.039,283L1098.975,297.167C1121.912,311.333,1167.785,339.667,1190.721,360.5C1213.658,381.333,1213.658,394.667,1375.679,408C1537.701,421.333,1861.744,434.667,2016.08,447.45C2170.415,460.233,2155.043,472.466,2147.357,478.583L2139.671,484.7"/><path marker-end="url(#my-svg_flowchart-pointEnd)" style="fill:none;" class="edge-thickness-normal edge-pattern-solid flowchart-link LS-SLO LE-HM" id="L-SLO-HM-0" d="M1496.743,301L1511.865,312.167C1526.986,323.333,1557.23,345.667,1572.351,363.5C1587.473,381.333,1587.473,394.667,1717.383,408C1847.294,421.333,2107.114,434.667,2331.019,453.566C2554.925,472.466,2742.914,496.931,2836.909,509.164L2930.904,521.397"/><path marker-end="url(#my-svg_flowchart-pointEnd)" style="fill:none;" class="edge-thickness-normal edge-pattern-solid flowchart-link LS-MC LE-HM" id="L-MC-HM-0" d="M2386.536,310L2399.513,319.667C2412.49,329.333,2438.444,348.667,2451.421,365C2464.397,381.333,2464.397,394.667,2522.781,408C2581.164,421.333,2697.931,434.667,2775.749,449.823C2853.566,464.98,2892.434,481.96,2911.868,490.45L2931.302,498.94"/><path marker-end="url(#my-svg_flowchart-pointEnd)" style="fill:none;" class="edge-thickness-normal edge-pattern-solid flowchart-link LS-ANALYTICS LE-HM" id="L-ANALYTICS-HM-0" d="M2678.935,274L2700.736,289.667C2722.536,305.333,2766.137,336.667,2787.937,359C2809.737,381.333,2809.737,394.667,2841.496,408C2873.254,421.333,2936.771,434.667,2968.836,447.118C3000.902,459.569,3001.515,471.138,3001.822,476.923L3002.129,482.707"/><path marker-end="url(#my-svg_flowchart-pointEnd)" style="fill:none;" class="edge-thickness-normal edge-pattern-solid flowchart-link LS-CHAT LE-IM" id="L-CHAT-IM-0" d="M3026.331,274L3045.76,289.667C3065.189,305.333,3104.047,336.667,3123.476,359C3142.905,381.333,3142.905,394.667,3155.127,408C3167.349,421.333,3191.793,434.667,3031.557,453.948C2871.321,473.229,2526.404,498.457,2353.946,511.072L2181.488,523.686"/><path marker-end="url(#my-svg_flowchart-pointEnd)" style="fill:none;" class="edge-thickness-normal edge-pattern-solid flowchart-link LS-RECO LE-HM" id="L-RECO-HM-0" d="M3339.959,274L3341.276,289.667C3342.592,305.333,3345.225,336.667,3346.542,359C3347.858,381.333,3347.858,394.667,3347.858,408C3347.858,421.333,3347.858,434.667,3302.944,452.196C3258.03,469.726,3168.202,491.453,3123.287,502.316L3078.373,513.179"/><path marker-end="url(#my-svg_flowchart-pointEnd)" style="fill:none;" class="edge-thickness-normal edge-pattern-solid flowchart-link LS-Dashboard LE-CL" id="L-Dashboard-CL-0" d="M1617.383,28.822L1398.571,39.018C1179.758,49.215,742.133,69.607,523.32,86.47C304.508,103.333,304.508,116.667,304.508,129.117C304.508,141.567,304.508,153.133,304.508,158.917L304.508,164.7"/><path marker-end="url(#my-svg_flowchart-pointEnd)" style="fill:none;" class="edge-thickness-normal edge-pattern-solid flowchart-link LS-Dashboard LE-INC" id="L-Dashboard-INC-0" d="M1617.383,30.023L1454.154,40.019C1290.925,50.015,964.466,70.008,801.237,86.67C638.008,103.333,638.008,116.667,638.008,135.117C638.008,153.567,638.008,177.133,638.008,188.917L638.008,200.7"/><path marker-end="url(#my-svg_flowchart-pointEnd)" style="fill:none;" class="edge-thickness-normal edge-pattern-solid flowchart-link LS-Dashboard LE-JOB" id="L-Dashboard-JOB-0" d="M1617.383,32.858L1517.985,42.382C1418.586,51.905,1219.788,70.953,1120.389,87.143C1020.991,103.333,1020.991,116.667,1020.991,136.617C1020.991,156.567,1020.991,183.133,1020.991,196.417L1020.991,209.7"/><path marker-end="url(#my-svg_flowchart-pointEnd)" style="fill:none;" class="edge-thickness-normal edge-pattern-solid flowchart-link LS-Dashboard LE-SLO" id="L-Dashboard-SLO-0" d="M1617.383,44.522L1585.54,52.102C1553.697,59.682,1490.011,74.841,1458.168,89.087C1426.325,103.333,1426.325,116.667,1426.325,133.617C1426.325,150.567,1426.325,171.133,1426.325,181.417L1426.325,191.7"/><path marker-end="url(#my-svg_flowchart-pointEnd)" style="fill:none;" class="edge-thickness-normal edge-pattern-solid flowchart-link LS-Dashboard LE-MET" id="L-Dashboard-MET-0" d="M1726.023,50L1733.123,56.667C1740.222,63.333,1754.422,76.667,1761.521,90C1768.621,103.333,1768.621,116.667,1768.621,138.117C1768.621,159.567,1768.621,189.133,1768.621,203.917L1768.621,218.7"/><path marker-end="url(#my-svg_flowchart-pointEnd)" style="fill:none;" class="edge-thickness-normal edge-pattern-solid flowchart-link LS-Dashboard LE-ALERT" id="L-Dashboard-ALERT-0" d="M1781.415,41.481L1821.656,49.567C1861.898,57.654,1942.381,73.827,1982.623,88.58C2022.864,103.333,2022.864,116.667,2022.864,138.117C2022.864,159.567,2022.864,189.133,2022.864,203.917L2022.864,218.7"/><path marker-end="url(#my-svg_flowchart-pointEnd)" style="fill:none;" class="edge-thickness-normal edge-pattern-solid flowchart-link LS-Dashboard LE-MC" id="L-Dashboard-MC-0" d="M1781.415,33.808L1868.62,43.173C1955.826,52.539,2130.236,71.269,2217.442,87.301C2304.647,103.333,2304.647,116.667,2304.647,132.117C2304.647,147.567,2304.647,165.133,2304.647,173.917L2304.647,182.7"/><path marker-end="url(#my-svg_flowchart-pointEnd)" style="fill:none;" class="edge-thickness-normal edge-pattern-solid flowchart-link LS-Dashboard LE-ANALYTICS" id="L-Dashboard-ANALYTICS-0" d="M1781.415,30.643L1925.203,40.536C2068.992,50.429,2356.57,70.214,2500.359,86.774C2644.147,103.333,2644.147,116.667,2644.147,138.117C2644.147,159.567,2644.147,189.133,2644.147,203.917L2644.147,218.7"/><path marker-end="url(#my-svg_flowchart-pointEnd)" style="fill:none;" class="edge-thickness-normal edge-pattern-solid flowchart-link LS-Dashboard LE-CHAT" id="L-Dashboard-CHAT-0" d="M1781.415,29.114L1983.733,39.261C2186.052,49.409,2590.69,69.705,2793.008,86.519C2995.327,103.333,2995.327,116.667,2995.327,138.117C2995.327,159.567,2995.327,189.133,2995.327,203.917L2995.327,218.7"/><path marker-end="url(#my-svg_flowchart-pointEnd)" style="fill:none;" class="edge-thickness-normal edge-pattern-solid flowchart-link LS-Dashboard LE-RECO" id="L-Dashboard-RECO-0" d="M1781.415,28.254L2040.822,38.545C2300.229,48.836,2819.044,69.418,3078.451,86.376C3337.858,103.333,3337.858,116.667,3337.858,138.117C3337.858,159.567,3337.858,189.133,3337.858,203.917L3337.858,218.7"/></g><g class="edgeLabels"><g class="edgeLabel"><g transform="translate(0, 0)" class="label"><rect height="0" width="0" ry="0" rx="0"/><text style=""><tspan class="row" x="0" dy="1em" xml:space="preserve"/></text></g></g><g class="edgeLabel"><g transform="translate(0, 0)" class="label"><rect height="0" width="0" ry="0" rx="0"/><text style=""><tspan class="row" x="0" dy="1em" xml:space="preserve"/></text></g></g><g class="edgeLabel"><g transform="translate(0, 0)" class="label"><rect height="0" width="0" ry="0" rx="0"/><text style=""><tspan class="row" x="0" dy="1em" xml:space="preserve"/></text></g></g><g class="edgeLabel"><g transform="translate(0, 0)" class="label"><rect height="0" width="0" ry="0" rx="0"/><text style=""><tspan class="row" x="0" dy="1em" xml:space="preserve"/></text></g></g><g class="edgeLabel"><g transform="translate(0, 0)" class="label"><rect height="0" width="0" ry="0" rx="0"/><text style=""><tspan class="row" x="0" dy="1em" xml:space="preserve"/></text></g></g><g class="edgeLabel"><g transform="translate(0, 0)" class="label"><rect height="0" width="0" ry="0" rx="0"/><text style=""><tspan class="row" x="0" dy="1em" xml:space="preserve"/></text></g></g><g class="edgeLabel"><g transform="translate(0, 0)" class="label"><rect height="0" width="0" ry="0" rx="0"/><text style=""><tspan class="row" x="0" dy="1em" xml:space="preserve"/></text></g></g><g class="edgeLabel"><g transform="translate(0, 0)" class="label"><rect height="0" width="0" ry="0" rx="0"/><text style=""><tspan class="row" x="0" dy="1em" xml:space="preserve"/></text></g></g><g class="edgeLabel"><g transform="translate(0, 0)" class="label"><rect height="0" width="0" ry="0" rx="0"/><text style=""><tspan class="row" x="0" dy="1em" xml:space="preserve"/></text></g></g><g class="edgeLabel"><g transform="translate(0, 0)" class="label"><rect height="0" width="0" ry="0" rx="0"/><text style=""><tspan class="row" x="0" dy="1em" xml:space="preserve"/></text></g></g><g class="edgeLabel"><g transform="translate(0, 0)" class="label"><rect height="0" width="0" ry="0" rx="0"/><text style=""><tspan class="row" x="0" dy="1em" xml:space="preserve"/></text></g></g><g class="edgeLabel"><g transform="translate(0, 0)" class="label"><rect height="0" width="0" ry="0" rx="0"/><text style=""><tspan class="row" x="0" dy="1em" xml:space="preserve"/></text></g></g><g class="edgeLabel"><g transform="translate(0, 0)" class="label"><rect height="0" width="0" ry="0" rx="0"/><text style=""><tspan class="row" x="0" dy="1em" xml:space="preserve"/></text></g></g><g class="edgeLabel"><g transform="translate(0, 0)" class="label"><rect height="0" width="0" ry="0" rx="0"/><text style=""><tspan class="row" x="0" dy="1em" xml:space="preserve"/></text></g></g><g class="edgeLabel"><g transform="translate(0, 0)" class="label"><rect height="0" width="0" ry="0" rx="0"/><text style=""><tspan class="row" x="0" dy="1em" xml:space="preserve"/></text></g></g><g class="edgeLabel"><g transform="translate(0, 0)" class="label"><rect height="0" width="0" ry="0" rx="0"/><text style=""><tspan class="row" x="0" dy="1em" xml:space="preserve"/></text></g></g><g class="edgeLabel"><g transform="translate(0, 0)" class="label"><rect height="0" width="0" ry="0" rx="0"/><text style=""><tspan class="row" x="0" dy="1em" xml:space="preserve"/></text></g></g><g class="edgeLabel"><g transform="translate(0, 0)" class="label"><rect height="0" width="0" ry="0" rx="0"/><text style=""><tspan class="row" x="0" dy="1em" xml:space="preserve"/></text></g></g><g class="edgeLabel"><g transform="translate(0, 0)" class="label"><rect height="0" width="0" ry="0" rx="0"/><text style=""><tspan class="row" x="0" dy="1em" xml:space="preserve"/></text></g></g><g class="edgeLabel"><g transform="translate(0, 0)" class="label"><rect height="0" width="0" ry="0" rx="0"/><text style=""><tspan class="row" x="0" dy="1em" xml:space="preserve"/></text></g></g><g class="edgeLabel"><g transform="translate(0, 0)" class="label"><rect height="0" width="0" ry="0" rx="0"/><text style=""><tspan class="row" x="0" dy="1em" xml:space="preserve"/></text></g></g><g class="edgeLabel"><g transform="translate(0, 0)" class="label"><rect height="0" width="0" ry="0" rx="0"/><text style=""><tspan class="row" x="0" dy="1em" xml:space="preserve"/></text></g></g><g class="edgeLabel"><g transform="translate(0, 0)" class="label"><rect height="0" width="0" ry="0" rx="0"/><text style=""><tspan class="row" x="0" dy="1em" xml:space="preserve"/></text></g></g><g class="edgeLabel"><g transform="translate(0, 0)" class="label"><rect height="0" width="0" ry="0" rx="0"/><text style=""><tspan class="row" x="0" dy="1em" xml:space="preserve"/></text></g></g><g class="edgeLabel"><g transform="translate(0, 0)" class="label"><rect height="0" width="0" ry="0" rx="0"/><text style=""><tspan class="row" x="0" dy="1em" xml:space="preserve"/></text></g></g><g class="edgeLabel"><g transform="translate(0, 0)" class="label"><rect height="0" width="0" ry="0" rx="0"/><text style=""><tspan class="row" x="0" dy="1em" xml:space="preserve"/></text></g></g><g class="edgeLabel"><g transform="translate(0, 0)" class="label"><rect height="0" width="0" ry="0" rx="0"/><text style=""><tspan class="row" x="0" dy="1em" xml:space="preserve"/></text></g></g><g class="edgeLabel"><g transform="translate(0, 0)" class="label"><rect height="0" width="0" ry="0" rx="0"/><text style=""><tspan class="row" x="0" dy="1em" xml:space="preserve"/></text></g></g></g><g class="nodes"><g transform="translate(1771.62841796875, 531)" data-id="OM" data-node="true" id="flowchart-OM-11" class="node default default flowchart-label"><rect height="86" width="124.0625" y="-43" x="-62.03125" ry="0" rx="0" style="" class="basic label-container"/><g transform="translate(0, -37)" style="" class="label"><rect/><text style=""><tspan class="row" x="0" dy="1em" xml:space="preserve">Organization</tspan><tspan class="row" x="0" dy="1em" xml:space="preserve">User</tspan><tspan class="row" x="0" dy="1em" xml:space="preserve">Cluster</tspan><tspan class="row" x="0" dy="1em" xml:space="preserve">auth schemas</tspan></text></g></g><g transform="translate(2081.490966796875, 531)" data-id="IM" data-node="true" id="flowchart-IM-12" class="node default default flowchart-label"><rect height="86" width="189.421875" y="-43" x="-94.7109375" ry="0" rx="0" style="" class="basic label-container"/><g transform="translate(0, -37)" style="" class="label"><rect/><text style=""><tspan class="row" x="0" dy="1em" xml:space="preserve">Incident</tspan><tspan class="row" x="0" dy="1em" xml:space="preserve">IncidentTimelineEvent</tspan><tspan class="row" x="0" dy="1em" xml:space="preserve">Job</tspan><tspan class="row" x="0" dy="1em" xml:space="preserve">transcript schemas</tspan></text></g></g><g transform="translate(3004.6904296875, 531)" data-id="HM" data-node="true" id="flowchart-HM-13" class="node default default flowchart-label"><rect height="86" width="137.0625" y="-43" x="-68.53125" ry="0" rx="0" style="" class="basic label-container"/><g transform="translate(0, -37)" style="" class="label"><rect/><text style=""><tspan class="row" x="0" dy="1em" xml:space="preserve">AuditLog</tspan><tspan class="row" x="0" dy="1em" xml:space="preserve">AuditEvent</tspan><tspan class="row" x="0" dy="1em" xml:space="preserve">SLO</tspan><tspan class="row" x="0" dy="1em" xml:space="preserve">status schemas</tspan></text></g></g><g transform="translate(1032.298828125, 531)" data-id="AD" data-node="true" id="flowchart-AD-10" class="node default default flowchart-label"><rect height="68" width="281.15625" y="-34" x="-140.578125" ry="0" rx="0" style="" class="basic label-container"/><g transform="translate(0, -28)" style="" class="label"><rect/><text style=""><tspan class="row" x="0" dy="1em" xml:space="preserve">get_current_user_and_org</tspan><tspan class="row" x="0" dy="1em" xml:space="preserve">require_admin</tspan><tspan class="row" x="0" dy="1em" xml:space="preserve">cluster token auth (webhook/jobs)</tspan></text></g></g><g transform="translate(304.5078125, 249)" data-id="CL" data-node="true" id="flowchart-CL-0" class="node default default flowchart-label"><rect height="158" width="205.78125" y="-79" x="-102.890625" ry="0" rx="0" style="" class="basic label-container"/><g transform="translate(0, -73)" style="" class="label"><rect/><text style=""><tspan class="row" x="0" dy="1em" xml:space="preserve">clusters.py</tspan><tspan class="row" x="0" dy="1em" xml:space="preserve">POST /clusters</tspan><tspan class="row" x="0" dy="1em" xml:space="preserve">GET /clusters</tspan><tspan class="row" x="0" dy="1em" xml:space="preserve">GET /clusters/{id}/health</tspan><tspan class="row" x="0" dy="1em" xml:space="preserve">DELETE /clusters/{id}</tspan><tspan class="row" x="0" dy="1em" xml:space="preserve">GET /clusters/{id}/lock</tspan><tspan class="row" x="0" dy="1em" xml:space="preserve">POST /clusters/{id}/lock</tspan><tspan class="row" x="0" dy="1em" xml:space="preserve">GET /clusters/{id}/audit</tspan></text></g></g><g transform="translate(638.0078125, 249)" data-id="INC" data-node="true" id="flowchart-INC-1" class="node default default flowchart-label"><rect height="86" width="324.15625" y="-43" x="-162.078125" ry="0" rx="0" style="" class="basic label-container"/><g transform="translate(0, -37)" style="" class="label"><rect/><text style=""><tspan class="row" x="0" dy="1em" xml:space="preserve">incidents.py</tspan><tspan class="row" x="0" dy="1em" xml:space="preserve">GET /clusters/{cluster_id}/incidents</tspan><tspan class="row" x="0" dy="1em" xml:space="preserve">POST /clusters/{cluster_id}/trigger</tspan><tspan class="row" x="0" dy="1em" xml:space="preserve">DELETE /clusters/{cluster_id}/incidents</tspan></text></g></g><g transform="translate(1020.99072265625, 249)" data-id="JOB" data-node="true" id="flowchart-JOB-2" class="node default default flowchart-label"><rect height="68" width="321.8095703125" y="-34" x="-160.90478515625" ry="0" rx="0" style="" class="basic label-container"/><g transform="translate(0, -28)" style="" class="label"><rect/><text style=""><tspan class="row" x="0" dy="1em" xml:space="preserve">jobs.py</tspan><tspan class="row" x="0" dy="1em" xml:space="preserve">POST /clusters/{cluster_id}/jobs/trigger</tspan><tspan class="row" x="0" dy="1em" xml:space="preserve">GET /clusters/{cluster_id}/jobs</tspan></text></g></g><g transform="translate(1768.62109375, 249)" data-id="MET" data-node="true" id="flowchart-MET-3" class="node default default flowchart-label"><rect height="50" width="195.732421875" y="-25" x="-97.8662109375" ry="0" rx="0" style="" class="basic label-container"/><g transform="translate(0, -19)" style="" class="label"><rect/><text style=""><tspan class="row" x="0" dy="1em" xml:space="preserve">metrics.py</tspan><tspan class="row" x="0" dy="1em" xml:space="preserve">GET /metrics/snapshot</tspan></text></g></g><g transform="translate(1426.3251953125, 249)" data-id="SLO" data-node="true" id="flowchart-SLO-4" class="node default default flowchart-label"><rect height="104" width="368.859375" y="-52" x="-184.4296875" ry="0" rx="0" style="" class="basic label-container"/><g transform="translate(0, -46)" style="" class="label"><rect/><text style=""><tspan class="row" x="0" dy="1em" xml:space="preserve">slos.py</tspan><tspan class="row" x="0" dy="1em" xml:space="preserve">POST /clusters/{cluster_id}/slos</tspan><tspan class="row" x="0" dy="1em" xml:space="preserve">GET /clusters/{cluster_id}/slos</tspan><tspan class="row" x="0" dy="1em" xml:space="preserve">GET /clusters/{cluster_id}/slos/{slo_id}/status</tspan><tspan class="row" x="0" dy="1em" xml:space="preserve">DELETE /clusters/{cluster_id}/slos/{slo_id}</tspan></text></g></g><g transform="translate(2022.8642578125, 249)" data-id="ALERT" data-node="true" id="flowchart-ALERT-5" class="node default default flowchart-label"><rect height="50" width="192.75390625" y="-25" x="-96.376953125" ry="0" rx="0" style="" class="basic label-container"/><g transform="translate(0, -19)" style="" class="label"><rect/><text style=""><tspan class="row" x="0" dy="1em" xml:space="preserve">alerts.py</tspan><tspan class="row" x="0" dy="1em" xml:space="preserve">POST /alerts/webhook</tspan></text></g></g><g transform="translate(2304.6474609375, 249)" data-id="MC" data-node="true" id="flowchart-MC-6" class="node default default flowchart-label"><rect height="122" width="250.8125" y="-61" x="-125.40625" ry="0" rx="0" style="" class="basic label-container"/><g transform="translate(0, -55)" style="" class="label"><rect/><text style=""><tspan class="row" x="0" dy="1em" xml:space="preserve">mission_control.py</tspan><tspan class="row" x="0" dy="1em" xml:space="preserve">GET /incidents/{id}/transcript</tspan><tspan class="row" x="0" dy="1em" xml:space="preserve">GET /incidents/{id}/logs</tspan><tspan class="row" x="0" dy="1em" xml:space="preserve">POST /incidents/{id}/message</tspan><tspan class="row" x="0" dy="1em" xml:space="preserve">GET /incidents/{id}/status</tspan><tspan class="row" x="0" dy="1em" xml:space="preserve">POST /incidents/{id}/approve</tspan></text></g></g><g transform="translate(2644.1474609375, 249)" data-id="ANALYTICS" data-node="true" id="flowchart-ANALYTICS-7" class="node default default flowchart-label"><rect height="50" width="308.1875" y="-25" x="-154.09375" ry="0" rx="0" style="" class="basic label-container"/><g transform="translate(0, -19)" style="" class="label"><rect/><text style=""><tspan class="row" x="0" dy="1em" xml:space="preserve">analytics.py</tspan><tspan class="row" x="0" dy="1em" xml:space="preserve">Cluster trend and analytics endpoints</tspan></text></g></g><g transform="translate(2995.3271484375, 249)" data-id="CHAT" data-node="true" id="flowchart-CHAT-8" class="node default default flowchart-label"><rect height="50" width="274.171875" y="-25" x="-137.0859375" ry="0" rx="0" style="" class="basic label-container"/><g transform="translate(0, -19)" style="" class="label"><rect/><text style=""><tspan class="row" x="0" dy="1em" xml:space="preserve">chat.py</tspan><tspan class="row" x="0" dy="1em" xml:space="preserve">General assistant chat endpoints</tspan></text></g></g><g transform="translate(3337.8583984375, 249)" data-id="RECO" data-node="true" id="flowchart-RECO-9" class="node default default flowchart-label"><rect height="50" width="236.140625" y="-25" x="-118.0703125" ry="0" rx="0" style="" class="basic label-container"/><g transform="translate(0, -19)" style="" class="label"><rect/><text style=""><tspan class="row" x="0" dy="1em" xml:space="preserve">recommendations.py</tspan><tspan class="row" x="0" dy="1em" xml:space="preserve">Recommendation endpoints</tspan></text></g></g><g transform="translate(1699.39892578125, 25)" data-id="Dashboard" data-node="true" id="flowchart-Dashboard-14" class="node default default flowchart-label"><rect height="50" width="164.03125" y="-25" x="-82.015625" ry="0" rx="0" style="fill:#e8f5e9;" class="basic label-container"/><g transform="translate(0, -19)" style="" class="label"><rect/><text style=""><tspan class="row" x="0" dy="1em" xml:space="preserve">Dashboard</tspan><tspan class="row" x="0" dy="1em" xml:space="preserve">via Next.js rewrites</tspan></text></g></g></g></g></g></svg>