<svg aria-roledescription="flowchart-v2" role="graphics-document document" viewBox="-8 -8 1366.95166015625 1404" style="max-width: 1366.95px; background-color: white;" xmlns:xlink="http://www.w3.org/1999/xlink" xmlns="http://www.w3.org/2000/svg" width="100%" id="my-svg"><style>#my-svg{font-family:Arial,Helvetica,sans-serif;font-size:18px;fill:#000000;}#my-svg .error-icon{fill:#552222;}#my-svg .error-text{fill:#552222;stroke:#552222;}#my-svg .edge-thickness-normal{stroke-width:2px;}#my-svg .edge-thickness-thick{stroke-width:3.5px;}#my-svg .edge-pattern-solid{stroke-dasharray:0;}#my-svg .edge-pattern-dashed{stroke-dasharray:3;}#my-svg .edge-pattern-dotted{stroke-dasharray:2;}#my-svg .marker{fill:#334155;stroke:#334155;}#my-svg .marker.cross{stroke:#334155;}#my-svg svg{font-family:Arial,Helvetica,sans-serif;font-size:18px;}#my-svg .label{font-family:Arial,Helvetica,sans-serif;color:#000000;}#my-svg .cluster-label text{fill:#0f172a;}#my-svg .cluster-label span,#my-svg p{color:#0f172a;}#my-svg .label text,#my-svg span,#my-svg p{fill:#000000;color:#000000;}#my-svg .node rect,#my-svg .node circle,#my-svg .node ellipse,#my-svg .node polygon,#my-svg .node path{fill:#ffffff;stroke:#475569;stroke-width:1px;}#my-svg .flowchart-label text{text-anchor:middle;}#my-svg .node .katex path{fill:#000;stroke:#000;stroke-width:1px;}#my-svg .node .label{text-align:center;}#my-svg .node.clickable{cursor:pointer;}#my-svg .arrowheadPath{fill:#333333;}#my-svg .edgePath .path{stroke:#334155;stroke-width:2.0px;}#my-svg .flowchart-link{stroke:#334155;fill:none;}#my-svg .edgeLabel{background-color:#ffffff;text-align:center;}#my-svg .edgeLabel rect{opacity:0.5;background-color:#ffffff;fill:#ffffff;}#my-svg .labelBkg{background-color:rgba(255, 255, 255, 0.5);}#my-svg .cluster rect{fill:#f8fafc;stroke:#64748b;stroke-width:1px;}#my-svg .cluster text{fill:#0f172a;}#my-svg .cluster span,#my-svg p{color:#0f172a;}#my-svg div.mermaidTooltip{position:absolute;text-align:center;max-width:200px;padding:2px;font-family:Arial,Helvetica,sans-serif;font-size:12px;background:#ffffff;border:1px solid #707070;border-radius:2px;pointer-events:none;z-index:100;}#my-svg .flowchartTitleText{text-anchor:middle;font-size:18px;fill:#000000;}#my-svg :root{--mermaid-font-family:"trebuchet ms",verdana,arial,sans-serif;}</style><g><marker orient="auto" markerHeight="12" markerWidth="12" markerUnits="userSpaceOnUse" refY="5" refX="6" viewBox="0 0 10 10" class="marker flowchart" id="my-svg_flowchart-pointEnd"><path style="stroke-width: 1; stroke-dasharray: 1, 0;" class="arrowMarkerPath" d="M 0 0 L 10 5 L 0 10 z"/></marker><marker orient="auto" markerHeight="12" markerWidth="12" markerUnits="userSpaceOnUse" refY="5" refX="4.5" viewBox="0 0 10 10" class="marker flowchart" id="my-svg_flowchart-pointStart"><path style="stroke-width: 1; stroke-dasharray: 1, 0;" class="arrowMarkerPath" d="M 0 5 L 10 10 L 10 0 z"/></marker><marker orient="auto" markerHeight="11" markerWidth="11" markerUnits="userSpaceOnUse" refY="5" refX="11" viewBox="0 0 10 10" class="marker flowchart" id="my-svg_flowchart-circleEnd"><circle style="stroke-width: 1; stroke-dasharray: 1, 0;" class="arrowMarkerPath" r="5" cy="5" cx="5"/></marker><marker orient="auto" markerHeight="11" markerWidth="11" markerUnits="userSpaceOnUse" refY="5" refX="-1" viewBox="0 0 10 10" class="marker flowchart" id="my-svg_flowchart-circleStart"><circle style="stroke-width: 1; stroke-dasharray: 1, 0;" class="arrowMarkerPath" r="5" cy="5" cx="5"/></marker><marker orient="auto" markerHeight="11" markerWidth="11" markerUnits="userSpaceOnUse" refY="5.2" refX="12" viewBox="0 0 11 11" class="marker cross flowchart" id="my-svg_flowchart-crossEnd"><path style="stroke-width: 2; stroke-dasharray: 1, 0;" class="arrowMarkerPath" d="M 1,1 l 9,9 M 10,1 l -9,9"/></marker><marker orient="auto" markerHeight="11" markerWidth="11" markerUnits="userSpaceOnUse" refY="5.2" refX="-1" viewBox="0 0 11 11" class="marker cross flowchart" id="my-svg_flowchart-crossStart"><path style="stroke-width: 2; stroke-dasharray: 1, 0;" class="arrowMarkerPath" d="M 1,1 l 9,9 M 10,1 l -9,9"/></marker><g class="root"><g class="clusters"><g id="Audit" class="cluster default flowchart-label"><rect height="292" width="417.1474609375" y="726" x="10.015625" ry="0" rx="0" style=""/><g transform="translate(218.58935546875, 726)" class="cluster-label"><text style=""><tspan class="row" x="0" dy="1em" xml:space="preserve">Audit &amp; Compliance</tspan></text></g></g><g id="Incident" class="cluster default flowchart-label"><rect height="662" width="340.0498046875" y="726" x="447.1630859375" ry="0" rx="0" style=""/><g transform="translate(617.18798828125, 726)" class="cluster-label"><text style=""><tspan class="row" x="0" dy="1em" xml:space="preserve">Incident &amp; Timeline</tspan></text></g></g><g id="Cluster" class="cluster default flowchart-label"><rect height="774" width="543.73876953125" y="244" x="807.212890625" ry="0" rx="0" style=""/><g transform="translate(1079.082275390625, 244)" class="cluster-label"><text style=""><tspan class="row" x="0" dy="1em" xml:space="preserve">Cluster &amp; Infrastructure</tspan></text></g></g><g id="Org" class="cluster default flowchart-label"><rect height="626" width="272.76953125" y="0" x="0" ry="0" rx="0" style=""/><g transform="translate(136.384765625, 0)" class="cluster-label"><text style=""><tspan class="row" x="0" dy="1em" xml:space="preserve">Organization Management</tspan></text></g></g></g><g class="edgePaths"><path marker-end="url(#my-svg_flowchart-pointEnd)" style="fill:none;" class="edge-thickness-normal edge-pattern-solid flowchart-link LS-ORGANIZATION LE-CLUSTER" id="L-ORGANIZATION-CLUSTER-0" d="M176.217,144L179.404,152.333C182.592,160.667,188.968,177.333,192.156,194C195.344,210.667,195.344,227.333,306.216,263.717C417.089,300.101,638.834,356.203,749.706,384.253L860.579,412.304"/><path marker-end="url(#my-svg_flowchart-pointEnd)" style="fill:none;" class="edge-thickness-normal edge-pattern-solid flowchart-link LS-ORGANIZATION LE-USER" id="L-ORGANIZATION-USER-0" d="M137.324,144L134.279,152.333C131.234,160.667,125.144,177.333,122.1,194C119.055,210.667,119.055,227.333,119.055,251.95C119.055,276.567,119.055,309.133,119.055,325.417L119.055,341.7"/><path marker-end="url(#my-svg_flowchart-pointEnd)" style="fill:none;" class="edge-thickness-normal edge-pattern-solid flowchart-link LS-USER LE-AUDITLOG" id="L-USER-AUDITLOG-0" d="M119.055,523L119.055,540.167C119.055,557.333,119.055,591.667,119.055,617.167C119.055,642.667,119.055,659.333,119.055,676C119.055,692.667,119.055,709.333,119.055,729.45C119.055,749.567,119.055,773.133,119.055,784.917L119.055,796.7"/><path marker-end="url(#my-svg_flowchart-pointEnd)" style="fill:none;" class="edge-thickness-normal edge-pattern-solid flowchart-link LS-CLUSTER LE-INCIDENT" id="L-CLUSTER-INCIDENT-0" d="M924.97,586L923.852,592.667C922.735,599.333,920.499,612.667,919.381,627.667C918.264,642.667,918.264,659.333,918.264,676C918.264,692.667,918.264,709.333,879.632,736.4C841,763.467,763.737,800.935,725.105,819.668L686.473,838.402"/><path marker-end="url(#my-svg_flowchart-pointEnd)" style="fill:none;" class="edge-thickness-normal edge-pattern-solid flowchart-link LS-CLUSTER LE-JOB" id="L-CLUSTER-JOB-0" d="M975.604,586L976.722,592.667C977.84,599.333,980.075,612.667,981.193,627.667C982.311,642.667,982.311,659.333,982.311,676C982.311,692.667,982.311,709.333,982.311,723.45C982.311,737.567,982.311,749.133,982.311,754.917L982.311,760.7"/><path marker-end="url(#my-svg_flowchart-pointEnd)" style="fill:none;" class="edge-thickness-normal edge-pattern-solid flowchart-link LS-CLUSTER LE-SLO" id="L-CLUSTER-SLO-0" d="M1034.857,497.462L1063.863,518.885C1092.868,540.308,1150.879,583.154,1179.884,612.91C1208.889,642.667,1208.889,659.333,1208.889,676C1208.889,692.667,1208.889,709.333,1208.889,723.45C1208.889,737.567,1208.889,749.133,1208.889,754.917L1208.889,760.7"/><path marker-end="url(#my-svg_flowchart-pointEnd)" style="fill:none;" class="edge-thickness-normal edge-pattern-solid flowchart-link LS-CLUSTER LE-AUDITEVENT" id="L-CLUSTER-AUDITEVENT-0" d="M880.679,586L877.606,592.667C874.533,599.333,868.387,612.667,865.313,627.667C862.24,642.667,862.24,659.333,862.24,676C862.24,692.667,862.24,709.333,783.914,738.664C705.588,767.996,548.935,809.991,470.609,830.989L392.282,851.987"/><path marker-end="url(#my-svg_flowchart-pointEnd)" style="fill:none;" class="edge-thickness-normal edge-pattern-solid flowchart-link LS-INCIDENT LE-TIMELINE" id="L-INCIDENT-TIMELINE-0" d="M617.188,969L617.188,977.167C617.188,985.333,617.188,1001.667,617.188,1018.167C617.188,1034.667,617.188,1051.333,617.188,1067.117C617.188,1082.9,617.188,1097.8,617.188,1105.25L617.188,1112.7"/></g><g class="edgeLabels"><g transform="translate(195.34375, 194)" class="edgeLabel"><g transform="translate(-21.015625, -10)" class="label"><rect height="20.000225067138672" width="42.00260543823242" ry="0" rx="0"/><text style=""><tspan class="row" x="0" dy="1em" xml:space="preserve">owns</tspan></text></g></g><g transform="translate(119.0546875, 194)" class="edgeLabel"><g transform="translate(-33.5234375, -10)" class="label"><rect height="20.000225067138672" width="67.01637268066406" ry="0" rx="0"/><text style=""><tspan class="row" x="0" dy="1em" xml:space="preserve">contains</tspan></text></g></g><g transform="translate(119.0546875, 676)" class="edgeLabel"><g transform="translate(-29.515625, -10)" class="label"><rect height="20.000225067138672" width="59.00065994262695" ry="0" rx="0"/><text style=""><tspan class="row" x="0" dy="1em" xml:space="preserve">creates</tspan></text></g></g><g transform="translate(918.263671875, 676)" class="edgeLabel"><g transform="translate(-14.515625, -10)" class="label"><rect height="20.000225067138672" width="29.015949249267578" ry="0" rx="0"/><text style=""><tspan class="row" x="0" dy="1em" xml:space="preserve">has</tspan></text></g></g><g transform="translate(982.310546875, 676)" class="edgeLabel"><g transform="translate(-29.53125, -10)" class="label"><rect height="20.000225067138672" width="59.03190994262695" ry="0" rx="0"/><text style=""><tspan class="row" x="0" dy="1em" xml:space="preserve">queues</tspan></text></g></g><g transform="translate(1208.88916015625, 676)" class="edgeLabel"><g transform="translate(-29.0234375, -10)" class="label"><rect height="20.000225067138672" width="58.016319274902344" ry="0" rx="0"/><text style=""><tspan class="row" x="0" dy="1em" xml:space="preserve">defines</tspan></text></g></g><g transform="translate(862.240234375, 676)" class="edgeLabel"><g transform="translate(-21.5078125, -10)" class="label"><rect height="20.000225067138672" width="42.98644256591797" ry="0" rx="0"/><text style=""><tspan class="row" x="0" dy="1em" xml:space="preserve">emits</tspan></text></g></g><g transform="translate(617.18798828125, 1068)" class="edgeLabel"><g transform="translate(-40.03125, -10)" class="label"><rect height="20.000225067138672" width="80.02091979980469" ry="0" rx="0"/><text style=""><tspan class="row" x="0" dy="1em" xml:space="preserve">generates</tspan></text></g></g></g><g class="nodes"><g transform="translate(119.0546875, 872)" data-id="AUDITLOG" data-node="true" id="flowchart-AUDITLOG-7" class="node default default flowchart-label"><rect height="140" width="138.078125" y="-70" x="-69.0390625" ry="0" rx="0" style="fill:#fce4ec;stroke:#c2185b;stroke-width:2px;" class="basic label-container"/><g transform="translate(0, -64)" style="" class="label"><rect/><text style=""><tspan class="row" x="0" dy="1em" xml:space="preserve">AUDITLOG</tspan><tspan class="row" x="0" dy="1em" xml:space="preserve">id (PK)</tspan><tspan class="row" x="0" dy="1em" xml:space="preserve">user_id (FK)</tspan><tspan class="row" x="0" dy="1em" xml:space="preserve">action</tspan><tspan class="row" x="0" dy="1em" xml:space="preserve">target_resource</tspan><tspan class="row" x="0" dy="1em" xml:space="preserve">target_id</tspan><tspan class="row" x="0" dy="1em" xml:space="preserve">timestamp</tspan></text></g></g><g transform="translate(317.62841796875, 872)" data-id="AUDITEVENT" data-node="true" id="flowchart-AUDITEVENT-8" class="node default default flowchart-label"><rect height="194" width="139.0693359375" y="-97" x="-69.53466796875" ry="0" rx="0" style="fill:#fce4ec;stroke:#c2185b;stroke-width:2px;" class="basic label-container"/><g transform="translate(0, -91)" style="" class="label"><rect/><text style=""><tspan class="row" x="0" dy="1em" xml:space="preserve">AUDITEVENT</tspan><tspan class="row" x="0" dy="1em" xml:space="preserve">id (PK)</tspan><tspan class="row" x="0" dy="1em" xml:space="preserve">cluster_id (FK)</tspan><tspan class="row" x="0" dy="1em" xml:space="preserve">timestamp</tspan><tspan class="row" x="0" dy="1em" xml:space="preserve">actor_type</tspan><tspan class="row" x="0" dy="1em" xml:space="preserve">actor_id</tspan><tspan class="row" x="0" dy="1em" xml:space="preserve">action_type</tspan><tspan class="row" x="0" dy="1em" xml:space="preserve">resource_target</tspan><tspan class="row" x="0" dy="1em" xml:space="preserve">outcome</tspan><tspan class="row" x="0" dy="1em" xml:space="preserve">details</tspan></text></g></g><g transform="translate(617.18798828125, 872)" data-id="INCIDENT" data-node="true" id="flowchart-INCIDENT-5" class="node default default flowchart-label"><rect height="194" width="129.0322265625" y="-97" x="-64.51611328125" ry="0" rx="0" style="fill:#fff3e0;stroke:#f57c00;stroke-width:2px;" class="basic label-container"/><g transform="translate(0, -91)" style="" class="label"><rect/><text style=""><tspan class="row" x="0" dy="1em" xml:space="preserve">INCIDENT</tspan><tspan class="row" x="0" dy="1em" xml:space="preserve">id (PK)</tspan><tspan class="row" x="0" dy="1em" xml:space="preserve">cluster_id (FK)</tspan><tspan class="row" x="0" dy="1em" xml:space="preserve">title</tspan><tspan class="row" x="0" dy="1em" xml:space="preserve">description</tspan><tspan class="row" x="0" dy="1em" xml:space="preserve">severity</tspan><tspan class="row" x="0" dy="1em" xml:space="preserve">status</tspan><tspan class="row" x="0" dy="1em" xml:space="preserve">summary</tspan><tspan class="row" x="0" dy="1em" xml:space="preserve">created_at</tspan><tspan class="row" x="0" dy="1em" xml:space="preserve">resolved_at</tspan></text></g></g><g transform="translate(617.18798828125, 1233)" data-id="TIMELINE" data-node="true" id="flowchart-TIMELINE-6" class="node default default flowchart-label"><rect height="230" width="260.0498046875" y="-115" x="-130.02490234375" ry="0" rx="0" style="fill:#fff3e0;stroke:#f57c00;stroke-width:2px;" class="basic label-container"/><g transform="translate(0, -109)" style="" class="label"><rect/><text style=""><tspan class="row" x="0" dy="1em" xml:space="preserve">INCIDENT_TIMELINE_EVENT</tspan><tspan class="row" x="0" dy="1em" xml:space="preserve">id (PK)</tspan><tspan class="row" x="0" dy="1em" xml:space="preserve">incident_id (FK)</tspan><tspan class="row" x="0" dy="1em" xml:space="preserve">sequence</tspan><tspan class="row" x="0" dy="1em" xml:space="preserve">event_type</tspan><tspan class="row" x="0" dy="1em" xml:space="preserve">speaker_role</tspan><tspan class="row" x="0" dy="1em" xml:space="preserve">title</tspan><tspan class="row" x="0" dy="1em" xml:space="preserve">content</tspan><tspan class="row" x="0" dy="1em" xml:space="preserve">payload_json</tspan><tspan class="row" x="0" dy="1em" xml:space="preserve">pending_supervisor</tspan><tspan class="row" x="0" dy="1em" xml:space="preserve">handled_at</tspan><tspan class="row" x="0" dy="1em" xml:space="preserve">created_at</tspan></text></g></g><g transform="translate(950.287109375, 435)" data-id="CLUSTER" data-node="true" id="flowchart-CLUSTER-2" class="node default default flowchart-label"><rect height="302" width="169.140625" y="-151" x="-84.5703125" ry="0" rx="0" style="fill:#f3e5f5;stroke:#7b1fa2;stroke-width:2px;" class="basic label-container"/><g transform="translate(0, -145)" style="" class="label"><rect/><text style=""><tspan class="row" x="0" dy="1em" xml:space="preserve">CLUSTER</tspan><tspan class="row" x="0" dy="1em" xml:space="preserve">id (PK)</tspan><tspan class="row" x="0" dy="1em" xml:space="preserve">name</tspan><tspan class="row" x="0" dy="1em" xml:space="preserve">org_id (FK)</tspan><tspan class="row" x="0" dy="1em" xml:space="preserve">token</tspan><tspan class="row" x="0" dy="1em" xml:space="preserve">status</tspan><tspan class="row" x="0" dy="1em" xml:space="preserve">last_heartbeat</tspan><tspan class="row" x="0" dy="1em" xml:space="preserve">prometheus_url</tspan><tspan class="row" x="0" dy="1em" xml:space="preserve">loki_url</tspan><tspan class="row" x="0" dy="1em" xml:space="preserve">k8s_api_server</tspan><tspan class="row" x="0" dy="1em" xml:space="preserve">k8s_token</tspan><tspan class="row" x="0" dy="1em" xml:space="preserve">github_token</tspan><tspan class="row" x="0" dy="1em" xml:space="preserve">github_repo</tspan><tspan class="row" x="0" dy="1em" xml:space="preserve">notion_api_key</tspan><tspan class="row" x="0" dy="1em" xml:space="preserve">notion_database_id</tspan><tspan class="row" x="0" dy="1em" xml:space="preserve">created_at</tspan></text></g></g><g transform="translate(982.310546875, 872)" data-id="JOB" data-node="true" id="flowchart-JOB-3" class="node default default flowchart-label"><rect height="212" width="129.0322265625" y="-106" x="-64.51611328125" ry="0" rx="0" style="fill:#f3e5f5;stroke:#7b1fa2;stroke-width:2px;" class="basic label-container"/><g transform="translate(0, -100)" style="" class="label"><rect/><text style=""><tspan class="row" x="0" dy="1em" xml:space="preserve">JOB</tspan><tspan class="row" x="0" dy="1em" xml:space="preserve">id (PK)</tspan><tspan class="row" x="0" dy="1em" xml:space="preserve">cluster_id (FK)</tspan><tspan class="row" x="0" dy="1em" xml:space="preserve">job_type</tspan><tspan class="row" x="0" dy="1em" xml:space="preserve">status</tspan><tspan class="row" x="0" dy="1em" xml:space="preserve">payload</tspan><tspan class="row" x="0" dy="1em" xml:space="preserve">result</tspan><tspan class="row" x="0" dy="1em" xml:space="preserve">logs</tspan><tspan class="row" x="0" dy="1em" xml:space="preserve">created_at</tspan><tspan class="row" x="0" dy="1em" xml:space="preserve">started_at</tspan><tspan class="row" x="0" dy="1em" xml:space="preserve">completed_at</tspan></text></g></g><g transform="translate(1208.88916015625, 872)" data-id="SLO" data-node="true" id="flowchart-SLO-4" class="node default default flowchart-label"><rect height="212" width="204.125" y="-106" x="-102.0625" ry="0" rx="0" style="fill:#f3e5f5;stroke:#7b1fa2;stroke-width:2px;" class="basic label-container"/><g transform="translate(0, -100)" style="" class="label"><rect/><text style=""><tspan class="row" x="0" dy="1em" xml:space="preserve">SLO</tspan><tspan class="row" x="0" dy="1em" xml:space="preserve">id (PK)</tspan><tspan class="row" x="0" dy="1em" xml:space="preserve">cluster_id (FK)</tspan><tspan class="row" x="0" dy="1em" xml:space="preserve">name</tspan><tspan class="row" x="0" dy="1em" xml:space="preserve">sli_metric</tspan><tspan class="row" x="0" dy="1em" xml:space="preserve">target</tspan><tspan class="row" x="0" dy="1em" xml:space="preserve">window_days</tspan><tspan class="row" x="0" dy="1em" xml:space="preserve">current_value</tspan><tspan class="row" x="0" dy="1em" xml:space="preserve">error_budget_remaining</tspan><tspan class="row" x="0" dy="1em" xml:space="preserve">last_calculated</tspan><tspan class="row" x="0" dy="1em" xml:space="preserve">created_at</tspan></text></g></g><g transform="translate(156.32421875, 92)" data-id="ORGANIZATION" data-node="true" id="flowchart-ORGANIZATION-0" class="node default default flowchart-label"><rect height="104" width="147.671875" y="-52" x="-73.8359375" ry="0" rx="0" style="fill:#e3f2fd;stroke:#1976d2;stroke-width:2px;" class="basic label-container"/><g transform="translate(0, -46)" style="" class="label"><rect/><text style=""><tspan class="row" x="0" dy="1em" xml:space="preserve">ORGANIZATION</tspan><tspan class="row" x="0" dy="1em" xml:space="preserve">id (PK)</tspan><tspan class="row" x="0" dy="1em" xml:space="preserve">name</tspan><tspan class="row" x="0" dy="1em" xml:space="preserve">api_key (unique)</tspan><tspan class="row" x="0" dy="1em" xml:space="preserve">created_at</tspan></text></g></g><g transform="translate(119.0546875, 435)" data-id="USER" data-node="true" id="flowchart-USER-1" class="node default default flowchart-label"><rect height="176" width="158.109375" y="-88" x="-79.0546875" ry="0" rx="0" style="fill:#e3f2fd;stroke:#1976d2;stroke-width:2px;" class="basic label-container"/><g transform="translate(0, -82)" style="" class="label"><rect/><text style=""><tspan class="row" x="0" dy="1em" xml:space="preserve">USER</tspan><tspan class="row" x="0" dy="1em" xml:space="preserve">id (PK)</tspan><tspan class="row" x="0" dy="1em" xml:space="preserve">email</tspan><tspan class="row" x="0" dy="1em" xml:space="preserve">hashed_password</tspan><tspan class="row" x="0" dy="1em" xml:space="preserve">full_name</tspan><tspan class="row" x="0" dy="1em" xml:space="preserve">role</tspan><tspan class="row" x="0" dy="1em" xml:space="preserve">is_active</tspan><tspan class="row" x="0" dy="1em" xml:space="preserve">org_id (FK)</tspan><tspan class="row" x="0" dy="1em" xml:space="preserve">created_at</tspan></text></g></g></g></g></g></svg>