<svg aria-roledescription="flowchart-v2" role="graphics-document document" viewBox="-8 -8 1617.4716796875 838" style="max-width: 1617.47px; background-color: white;" xmlns:xlink="http://www.w3.org/1999/xlink" xmlns="http://www.w3.org/2000/svg" width="100%" id="my-svg"><style>#my-svg{font-family:Arial,Helvetica,sans-serif;font-size:18px;fill:#000000;}#my-svg .error-icon{fill:#552222;}#my-svg .error-text{fill:#552222;stroke:#552222;}#my-svg .edge-thickness-normal{stroke-width:2px;}#my-svg .edge-thickness-thick{stroke-width:3.5px;}#my-svg .edge-pattern-solid{stroke-dasharray:0;}#my-svg .edge-pattern-dashed{stroke-dasharray:3;}#my-svg .edge-pattern-dotted{stroke-dasharray:2;}#my-svg .marker{fill:#334155;stroke:#334155;}#my-svg .marker.cross{stroke:#334155;}#my-svg svg{font-family:Arial,Helvetica,sans-serif;font-size:18px;}#my-svg .label{font-family:Arial,Helvetica,sans-serif;color:#000000;}#my-svg .cluster-label text{fill:#0f172a;}#my-svg .cluster-label span,#my-svg p{color:#0f172a;}#my-svg .label text,#my-svg span,#my-svg p{fill:#000000;color:#000000;}#my-svg .node rect,#my-svg .node circle,#my-svg .node ellipse,#my-svg .node polygon,#my-svg .node path{fill:#ffffff;stroke:#475569;stroke-width:1px;}#my-svg .flowchart-label text{text-anchor:middle;}#my-svg .node .katex path{fill:#000;stroke:#000;stroke-width:1px;}#my-svg .node .label{text-align:center;}#my-svg .node.clickable{cursor:pointer;}#my-svg .arrowheadPath{fill:#333333;}#my-svg .edgePath .path{stroke:#334155;stroke-width:2.0px;}#my-svg .flowchart-link{stroke:#334155;fill:none;}#my-svg .edgeLabel{background-color:#ffffff;text-align:center;}#my-svg .edgeLabel rect{opacity:0.5;background-color:#ffffff;fill:#ffffff;}#my-svg .labelBkg{background-color:rgba(255, 255, 255, 0.5);}#my-svg .cluster rect{fill:#f8fafc;stroke:#64748b;stroke-width:1px;}#my-svg .cluster text{fill:#0f172a;}#my-svg .cluster span,#my-svg p{color:#0f172a;}#my-svg div.mermaidTooltip{position:absolute;text-align:center;max-width:200px;padding:2px;font-family:Arial,Helvetica,sans-serif;font-size:12px;background:#ffffff;border:1px solid #707070;border-radius:2px;pointer-events:none;z-index:100;}#my-svg .flowchartTitleText{text-anchor:middle;font-size:18px;fill:#000000;}#my-svg :root{--mermaid-font-family:"trebuchet ms",verdana,arial,sans-serif;}</style><g><marker orient="auto" markerHeight="12" markerWidth="12" markerUnits="userSpaceOnUse" refY="5" refX="6" viewBox="0 0 10 10" class="marker flowchart" id="my-svg_flowchart-pointEnd"><path style="stroke-width: 1; stroke-dasharray: 1, 0;" class="arrowMarkerPath" d="M 0 0 L 10 5 L 0 10 z"/></marker><marker orient="auto" markerHeight="12" markerWidth="12" markerUnits="userSpaceOnUse" refY="5" refX="4.5" viewBox="0 0 10 10" class="marker flowchart" id="my-svg_flowchart-pointStart"><path style="stroke-width: 1; stroke-dasharray: 1, 0;" class="arrowMarkerPath" d="M 0 5 L 10 10 L 10 0 z"/></marker><marker orient="auto" markerHeight="11" markerWidth="11" markerUnits="userSpaceOnUse" refY="5" refX="11" viewBox="0 0 10 10" class="marker flowchart" id="my-svg_flowchart-circleEnd"><circle style="stroke-width: 1; stroke-dasharray: 1, 0;" class="arrowMarkerPath" r="5" cy="5" cx="5"/></marker><marker orient="auto" markerHeight="11" markerWidth="11" markerUnits="userSpaceOnUse" refY="5" refX="-1" viewBox="0 0 10 10" class="marker flowchart" id="my-svg_flowchart-circleStart"><circle style="stroke-width: 1; stroke-dasharray: 1, 0;" class="arrowMarkerPath" r="5" cy="5" cx="5"/></marker><marker orient="auto" markerHeight="11" markerWidth="11" markerUnits="userSpaceOnUse" refY="5.2" refX="12" viewBox="0 0 11 11" class="marker cross flowchart" id="my-svg_flowchart-crossEnd"><path style="stroke-width: 2; stroke-dasharray: 1, 0;" class="arrowMarkerPath" d="M 1,1 l 9,9 M 10,1 l -9,9"/></marker><marker orient="auto" markerHeight="11" markerWidth="11" markerUnits="userSpaceOnUse" refY="5.2" refX="-1" viewBox="0 0 11 11" class="marker cross flowchart" id="my-svg_flowchart-crossStart"><path style="stroke-width: 2; stroke-dasharray: 1, 0;" class="arrowMarkerPath" d="M 1,1 l 9,9 M 10,1 l -9,9"/></marker><g class="root"><g class="clusters"><g id="StatusModel" class="cluster default flowchart-label"><rect height="624" width="343.5546875" y="198" x="0" ry="0" rx="0" style="fill:#fce4ec;"/><g transform="translate(171.77734375, 198)" class="cluster-label"><text style=""><tspan class="row" x="0" dy="1em" xml:space="preserve">Job Status Enum</tspan></text></g></g><g id="JobLifecycle" class="cluster default flowchart-label"><rect height="624" width="461.578125" y="198" x="363.5546875" ry="0" rx="0" style="fill:#f3e5f5;"/><g transform="translate(594.34375, 198)" class="cluster-label"><text style=""><tspan class="row" x="0" dy="1em" xml:space="preserve">Job Lifecycle</tspan></text></g></g></g><g class="edgePaths"><path marker-end="url(#my-svg_flowchart-pointEnd)" style="fill:none;" class="edge-thickness-normal edge-pattern-solid flowchart-link LS-Create LE-Pick" id="L-Create-Pick-0" d="M594.344,306L594.344,312.667C594.344,319.333,594.344,332.667,594.344,349.283C594.344,365.9,594.344,385.8,594.344,395.75L594.344,405.7"/><path marker-end="url(#my-svg_flowchart-pointEnd)" style="fill:none;" class="edge-thickness-normal edge-pattern-solid flowchart-link LS-Pick LE-Run" id="L-Pick-Run-0" d="M601.108,461L604.039,471.833C606.97,482.667,612.833,504.333,616.547,520.958C620.261,537.583,621.826,549.165,622.608,554.956L623.391,560.748"/><path marker-end="url(#my-svg_flowchart-pointEnd)" style="fill:none;" class="edge-thickness-normal edge-pattern-solid flowchart-link LS-Run LE-Result" id="L-Run-Result-0" d="M628.695,634L628.695,640.667C628.695,647.333,628.695,660.667,628.695,673.117C628.695,685.567,628.695,697.133,628.695,702.917L628.695,708.7"/><path marker-end="url(#my-svg_flowchart-pointEnd)" style="fill:none;" class="edge-thickness-normal edge-pattern-solid flowchart-link LS-Pending LE-Pick" id="L-Pending-Pick-0" d="M169.031,288L169.031,297.667C169.031,307.333,169.031,326.667,219.362,346.984C269.693,367.301,370.355,388.602,420.685,399.252L471.016,409.903"/><path marker-end="url(#my-svg_flowchart-pointEnd)" style="fill:none;" class="edge-thickness-normal edge-pattern-solid flowchart-link LS-Pick LE-Running" id="L-Pick-Running-0" d="M565.067,461L552.381,471.833C539.695,482.667,514.322,504.333,459.258,525.368C404.194,546.402,319.439,566.804,277.062,577.004L234.684,587.205"/><path marker-end="url(#my-svg_flowchart-pointEnd)" style="fill:none;" class="edge-thickness-normal edge-pattern-solid flowchart-link LS-Running LE-Completed" id="L-Running-Completed-0" d="M164.339,616L153.952,625.667C143.564,635.333,122.79,654.667,112.403,673.117C102.016,691.567,102.016,709.133,102.016,717.917L102.016,726.7"/><path marker-end="url(#my-svg_flowchart-pointEnd)" style="fill:none;" class="edge-thickness-normal edge-pattern-solid flowchart-link LS-Running LE-Failed" id="L-Running-Failed-0" d="M198.724,616L209.111,625.667C219.498,635.333,240.273,654.667,250.66,673.117C261.047,691.567,261.047,709.133,261.047,717.917L261.047,726.7"/><path marker-end="url(#my-svg_flowchart-pointEnd)" style="fill:none;" class="edge-thickness-normal edge-pattern-solid flowchart-link LS-JobSources LE-Create" id="L-JobSources-Create-0" d="M594.344,118L594.344,124.667C594.344,131.333,594.344,144.667,594.344,158C594.344,171.333,594.344,184.667,594.344,197.117C594.344,209.567,594.344,221.133,594.344,226.917L594.344,232.7"/><path marker-end="url(#my-svg_flowchart-pointEnd)" style="fill:none;" class="edge-thickness-normal edge-pattern-solid flowchart-link LS-JobTypes LE-Run" id="L-JobTypes-Run-0" d="M941.989,486L903.28,492.667C864.572,499.333,787.155,512.667,741.798,525.404C696.441,538.142,683.143,550.284,676.494,556.355L669.845,562.426"/></g><g class="edgeLabels"><g class="edgeLabel"><g transform="translate(0, 0)" class="label"><rect height="0" width="0" ry="0" rx="0"/><text style=""><tspan class="row" x="0" dy="1em" xml:space="preserve"/></text></g></g><g class="edgeLabel"><g transform="translate(0, 0)" class="label"><rect height="0" width="0" ry="0" rx="0"/><text style=""><tspan class="row" x="0" dy="1em" xml:space="preserve"/></text></g></g><g class="edgeLabel"><g transform="translate(0, 0)" class="label"><rect height="0" width="0" ry="0" rx="0"/><text style=""><tspan class="row" x="0" dy="1em" xml:space="preserve"/></text></g></g><g class="edgeLabel"><g transform="translate(0, 0)" class="label"><rect height="0" width="0" ry="0" rx="0"/><text style=""><tspan class="row" x="0" dy="1em" xml:space="preserve"/></text></g></g><g class="edgeLabel"><g transform="translate(0, 0)" class="label"><rect height="0" width="0" ry="0" rx="0"/><text style=""><tspan class="row" x="0" dy="1em" xml:space="preserve"/></text></g></g><g class="edgeLabel"><g transform="translate(0, 0)" class="label"><rect height="0" width="0" ry="0" rx="0"/><text style=""><tspan class="row" x="0" dy="1em" xml:space="preserve"/></text></g></g><g class="edgeLabel"><g transform="translate(0, 0)" class="label"><rect height="0" width="0" ry="0" rx="0"/><text style=""><tspan class="row" x="0" dy="1em" xml:space="preserve"/></text></g></g><g class="edgeLabel"><g transform="translate(0, 0)" class="label"><rect height="0" width="0" ry="0" rx="0"/><text style=""><tspan class="row" x="0" dy="1em" xml:space="preserve"/></text></g></g><g class="edgeLabel"><g transform="translate(0, 0)" class="label"><rect height="0" width="0" ry="0" rx="0"/><text style=""><tspan class="row" x="0" dy="1em" xml:space="preserve"/></text></g></g></g><g class="nodes"><g transform="translate(169.03125, 272)" data-id="Pending" data-node="true" id="flowchart-Pending-10" class="node default default flowchart-label"><rect height="32" width="94.015625" y="-16" x="-47.0078125" ry="0" rx="0" style="" class="basic label-container"/><g transform="translate(0, -10)" style="" class="label"><rect/><text style=""><tspan class="row" x="0" dy="1em" xml:space="preserve">PENDING</tspan></text></g></g><g transform="translate(181.53125, 600)" data-id="Running" data-node="true" id="flowchart-Running-11" class="node default default flowchart-label"><rect height="32" width="96" y="-16" x="-48" ry="0" rx="0" style="" class="basic label-container"/><g transform="translate(0, -10)" style="" class="label"><rect/><text style=""><tspan class="row" x="0" dy="1em" xml:space="preserve">RUNNING</tspan></text></g></g><g transform="translate(102.015625, 748)" data-id="Completed" data-node="true" id="flowchart-Completed-12" class="node default default flowchart-label"><rect height="32" width="124.03125" y="-16" x="-62.015625" ry="0" rx="0" style="" class="basic label-container"/><g transform="translate(0, -10)" style="" class="label"><rect/><text style=""><tspan class="row" x="0" dy="1em" xml:space="preserve">COMPLETED</tspan></text></g></g><g transform="translate(261.046875, 748)" data-id="Failed" data-node="true" id="flowchart-Failed-13" class="node default default flowchart-label"><rect height="32" width="74.03125" y="-16" x="-37.015625" ry="0" rx="0" style="" class="basic label-container"/><g transform="translate(0, -10)" style="" class="label"><rect/><text style=""><tspan class="row" x="0" dy="1em" xml:space="preserve">FAILED</tspan></text></g></g><g transform="translate(859.1328125, 378)" class="root"><g class="clusters"><g id="JobTypes" class="cluster default flowchart-label"><rect height="100" width="734.3388671875" y="8" x="8" ry="0" rx="0" style="fill:#fff3e0;"/><g transform="translate(375.16943359375, 8)" class="cluster-label"><text style=""><tspan class="row" x="0" dy="1em" xml:space="preserve">Job Types</tspan></text></g></g></g><g class="edgePaths"/><g class="edgeLabels"/><g class="nodes"><g transform="translate(124.04443359375, 58)" data-id="ToolCall" data-node="true" id="flowchart-ToolCall-7" class="node default default flowchart-label"><rect height="50" width="162.0888671875" y="-25" x="-81.04443359375" ry="0" rx="0" style="" class="basic label-container"/><g transform="translate(0, -19)" style="" class="label"><rect/><text style=""><tspan class="row" x="0" dy="1em" xml:space="preserve">TOOL_CALL</tspan><tspan class="row" x="0" dy="1em" xml:space="preserve">tool execution task</tspan></text></g></g><g transform="translate(345.1357421875, 58)" data-id="Investigation" data-node="true" id="flowchart-Investigation-8" class="node default default flowchart-label"><rect height="50" width="180.09375" y="-25" x="-90.046875" ry="0" rx="0" style="" class="basic label-container"/><g transform="translate(0, -19)" style="" class="label"><rect/><text style=""><tspan class="row" x="0" dy="1em" xml:space="preserve">INVESTIGATION</tspan><tspan class="row" x="0" dy="1em" xml:space="preserve">incident analysis turn</tspan></text></g></g><g transform="translate(596.2607421875, 58)" data-id="Remediation" data-node="true" id="flowchart-Remediation-9" class="node default default flowchart-label"><rect height="50" width="222.15625" y="-25" x="-111.078125" ry="0" rx="0" style="" class="basic label-container"/><g transform="translate(0, -19)" style="" class="label"><rect/><text style=""><tspan class="row" x="0" dy="1em" xml:space="preserve">REMEDIATION</tspan><tspan class="row" x="0" dy="1em" xml:space="preserve">approved action execution</tspan></text></g></g></g></g><g transform="translate(170.34423828125, -8)" class="root"><g class="clusters"><g id="JobSources" class="cluster default flowchart-label"><rect height="118" width="835.9990234375" y="8" x="8" ry="0" rx="0" style="fill:#e1f5ff;"/><g transform="translate(425.99951171875, 8)" class="cluster-label"><text style=""><tspan class="row" x="0" dy="1em" xml:space="preserve">Job Creation Sources</tspan></text></g></g></g><g class="edgePaths"/><g class="edgeLabels"/><g class="nodes"><g transform="translate(142.55322265625, 67)" data-id="Alert" data-node="true" id="flowchart-Alert-4" class="node default default flowchart-label"><rect height="50" width="199.1064453125" y="-25" x="-99.55322265625" ry="0" rx="0" style="" class="basic label-container"/><g transform="translate(0, -19)" style="" class="label"><rect/><text style=""><tspan class="row" x="0" dy="1em" xml:space="preserve">Alertmanager webhook</tspan><tspan class="row" x="0" dy="1em" xml:space="preserve">POST /alerts/webhook</tspan></text></g></g><g transform="translate(421.498046875, 67)" data-id="User" data-node="true" id="flowchart-User-5" class="node default default flowchart-label"><rect height="50" width="258.783203125" y="-25" x="-129.3916015625" ry="0" rx="0" style="" class="basic label-container"/><g transform="translate(0, -19)" style="" class="label"><rect/><text style=""><tspan class="row" x="0" dy="1em" xml:space="preserve">Dashboard trigger</tspan><tspan class="row" x="0" dy="1em" xml:space="preserve">POST /clusters/{id}/jobs/trigger</tspan></text></g></g><g transform="translate(704.9443359375, 67)" data-id="Incident" data-node="true" id="flowchart-Incident-6" class="node default default flowchart-label"><rect height="68" width="208.109375" y="-34" x="-104.0546875" ry="0" rx="0" style="" class="basic label-container"/><g transform="translate(0, -28)" style="" class="label"><rect/><text style=""><tspan class="row" x="0" dy="1em" xml:space="preserve">Incident trigger/follow-up</tspan><tspan class="row" x="0" dy="1em" xml:space="preserve">/clusters/{id}/trigger</tspan><tspan class="row" x="0" dy="1em" xml:space="preserve">/incidents/{id}/message</tspan></text></g></g></g></g><g transform="translate(594.34375, 272)" data-id="Create" data-node="true" id="flowchart-Create-0" class="node default default flowchart-label"><rect height="68" width="381.578125" y="-34" x="-190.7890625" ry="0" rx="0" style="" class="basic label-container"/><g transform="translate(0, -28)" style="" class="label"><rect/><text style=""><tspan class="row" x="0" dy="1em" xml:space="preserve">1. Job row created in Postgres</tspan><tspan class="row" x="0" dy="1em" xml:space="preserve">job_type: tool_call | investigation | remediation</tspan><tspan class="row" x="0" dy="1em" xml:space="preserve">status: pending</tspan></text></g></g><g transform="translate(594.34375, 436)" data-id="Pick" data-node="true" id="flowchart-Pick-1" class="node default default flowchart-label"><rect height="50" width="298.8125" y="-25" x="-149.40625" ry="0" rx="0" style="" class="basic label-container"/><g transform="translate(0, -19)" style="" class="label"><rect/><text style=""><tspan class="row" x="0" dy="1em" xml:space="preserve">2. Worker/runtime picks pending job</tspan><tspan class="row" x="0" dy="1em" xml:space="preserve">cluster_id scoped</tspan></text></g></g><g transform="translate(628.6953125, 600)" data-id="Run" data-node="true" id="flowchart-Run-2" class="node default default flowchart-label"><rect height="68" width="284.171875" y="-34" x="-142.0859375" ry="0" rx="0" style="" class="basic label-container"/><g transform="translate(0, -28)" style="" class="label"><rect/><text style=""><tspan class="row" x="0" dy="1em" xml:space="preserve">3. Investigation or action executes</tspan><tspan class="row" x="0" dy="1em" xml:space="preserve">status: running</tspan><tspan class="row" x="0" dy="1em" xml:space="preserve">logs appended</tspan></text></g></g><g transform="translate(628.6953125, 748)" data-id="Result" data-node="true" id="flowchart-Result-3" class="node default default flowchart-label"><rect height="68" width="222.125" y="-34" x="-111.0625" ry="0" rx="0" style="" class="basic label-container"/><g transform="translate(0, -28)" style="" class="label"><rect/><text style=""><tspan class="row" x="0" dy="1em" xml:space="preserve">4. Result persisted</tspan><tspan class="row" x="0" dy="1em" xml:space="preserve">status: completed or failed</tspan><tspan class="row" x="0" dy="1em" xml:space="preserve">result JSON + timestamps</tspan></text></g></g></g></g></g></svg>